
        <svg xmlns="http://www.w3.org/2000/svg" xmlns:xlink="http://www.w3.org/1999/xlink" version="1.1" width="3300" 
        height="2986.582751766339" viewBox="0 0 3300 2986.582751766339">
			
			<g transform="scale(15) translate(10, 10)">
				<defs id="SvgjsDefs2612"></defs><g id="SvgjsG2613" featureKey="symbolFeature-0" transform="matrix(1.5398758554980083,0,0,1.5398758554980083,21.938290772105493,-27.291771300145502)" fill="#499d8f"><path xmlns="http://www.w3.org/2000/svg" d="M82.3,66.7c-0.1,0-0.2,0-0.3-0.1l-4.4-1.8c-0.4-0.2-0.7-0.7-0.5-1.1c0.2-0.4,0.7-0.7,1.1-0.5l4.4,1.8  c0.4,0.2,0.7,0.7,0.5,1.1C83,66.4,82.7,66.7,82.3,66.7z M24.4,42c0.2-0.4,0-1-0.5-1.1L19.4,39c-0.4-0.2-1,0-1.1,0.5  c-0.2,0.4,0,1,0.5,1.1l4.5,1.8c0.1,0,0.2,0.1,0.3,0.1C23.9,42.5,24.2,42.3,24.4,42z M20,68.2l4.2-2.2c0.4-0.2,0.6-0.8,0.4-1.2  c-0.2-0.4-0.8-0.6-1.2-0.4l-4.2,2.2c-0.4,0.2-0.6,0.8-0.4,1.2c0.2,0.3,0.5,0.5,0.8,0.5C19.8,68.3,19.9,68.3,20,68.2z M76.6,38.5  l3.4-1.8c0.4-0.2,0.6-0.8,0.4-1.2c-0.2-0.4-0.8-0.6-1.2-0.4l-3.4,1.8c-0.4,0.2-0.6,0.8-0.4,1.2c0.2,0.3,0.5,0.5,0.8,0.5  C76.3,38.6,76.4,38.5,76.6,38.5z M61.3,23.1l1.7-4.1c0.2-0.4,0-1-0.5-1.2c-0.4-0.2-1,0-1.2,0.5l-1.7,4.1c-0.2,0.4,0,1,0.5,1.2  c0.1,0,0.2,0.1,0.3,0.1C60.8,23.6,61.2,23.4,61.3,23.1z M36.1,83.1l2.2-5.2c0.2-0.4,0-1-0.5-1.2c-0.4-0.2-1,0-1.2,0.5l-2.2,5.2  c-0.2,0.4,0,1,0.5,1.2c0.1,0,0.2,0.1,0.3,0.1C35.7,83.6,36,83.4,36.1,83.1z M62,82.6c0.4-0.2,0.6-0.7,0.4-1.2l-1.7-3.6  c-0.2-0.4-0.7-0.6-1.2-0.4c-0.4,0.2-0.6,0.7-0.4,1.2l1.7,3.6c0.1,0.3,0.5,0.5,0.8,0.5C61.8,82.7,61.9,82.7,62,82.6z M36.3,26.9  c0.4-0.2,0.6-0.7,0.4-1.2l-1.9-4c-0.2-0.4-0.7-0.6-1.2-0.4c-0.4,0.2-0.6,0.7-0.4,1.2l1.9,4c0.1,0.3,0.5,0.5,0.8,0.5  C36,27,36.1,27,36.3,26.9z M63,34.7c0.2,0,0.5,0.2,0.7,0.4c0.1,0.2,0.1,23.1,0,23.3c-0.4,2.2-2,3.9-4.2,4.3  c-0.6,0.1-1.8,0.1-2.3-0.1c-0.6-0.2-1.5-0.7-2-1c-2.3-2-2.5-5.4-0.5-7.6c0.7-0.8,1.5-1.2,2.5-1.5c0.7-0.2,1.9-0.2,2.5,0  c0.7,0.2,1.6,0.7,2.1,1l0.4,0.3c0,0,0-10.3,0-10.4c0,0-18.1,3.9-18.1,3.9S44,61.8,44,62c-0.3,1.1-0.7,1.8-1.3,2.5  c-1,1.1-2.3,1.6-3.8,1.6c-1.3,0-2.4-0.4-3.4-1.2c-2.4-2-2.4-5.7-0.1-7.8c0.7-0.6,1.6-1.1,2.5-1.3c0.7-0.1,1.8-0.1,2.4,0.1  c0.6,0.2,1.5,0.6,1.9,1l0.4,0.3l0-17.8l0.1-0.2c0.1-0.1,0.2-0.2,0.3-0.2C43,38.9,62.9,34.7,63,34.7z M62,36.4l-18,3.8l0,5.5l18-3.9  V36.4z M57.6,54c-1.3,0.3-2.4,1.4-2.7,2.7c-0.1,0.5-0.1,1.4,0,1.9c0.2,1,1,1.9,1.9,2.3c0.9,0.4,1.6,0.5,2.4,0.3  c2.5-0.5,3.7-3.3,2.4-5.5c-0.5-0.8-1.4-1.5-2.3-1.7C58.9,53.8,58.1,53.8,57.6,54z M38.2,57.2c-1.8,0.3-3.1,1.8-3.1,3.6  c0,0.6,0.1,1,0.3,1.5c0.9,1.9,3.2,2.7,5.1,1.7c0.8-0.4,1.4-1.1,1.7-2c0.2-0.5,0.3-1.6,0.1-2.2c-0.3-1.2-1.3-2.3-2.6-2.6  C39.4,57.2,38.6,57.2,38.2,57.2z"></path></g><g id="SvgjsG2614" featureKey="nameFeature-0" transform="matrix(1.1123193749721012,0,0,1.1123193749721012,-0.5431459106189873,109.33443289210675)" fill="#019590"><path d="M7.9492 40.39063 c-2.1875 0 -4.8438 -0.58594 -7.4609 -1.9531 l2.4805 -4.8242 c1.3867 0.97656 2.7344 1.5039 4.2773 1.5039 c2.3047 0 3.4766 -1.3867 3.4766 -4.6875 l0 -18.652 l5.8594 0 l0 19.746 c0 5.7813 -3.5156 8.8672 -8.6328 8.8672 z M37.519968750000004 40.39063 c-6.1914 0 -11.035 -3.1641 -11.035 -10.273 l0 -18.34 l5.8594 0 l0 17.539 c0 4.2969 2.2852 5.8984 5.1758 5.8984 c2.9102 0 5.2148 -1.6211 5.2148 -5.8984 l0 -17.539 l5.8594 0 l0 18.34 c0 7.1094 -4.8633 10.273 -11.074 10.273 z M68.31996875 40.39063 c-6.0547 0 -10.781 -2.9102 -11.641 -8.2031 l6.0547 -1.3867 c0.39063 3.1641 2.7148 4.8047 5.8203 4.8047 c2.3828 0 4.2773 -1.0547 4.2578 -3.4375 c-0.019531 -2.6563 -3.1445 -3.4961 -6.582 -4.5508 c-4.1406 -1.2891 -8.5742 -2.8125 -8.5742 -8.0078 c0 -5.2539 4.2969 -8.2227 9.9609 -8.2227 c4.9609 0 9.9609 2.0117 11.094 7.4219 l-5.6641 1.4063 c-0.52734 -2.8125 -2.4219 -4.043 -5.0781 -4.043 c-2.3633 0 -4.375 0.97656 -4.375 3.3008 c0 2.168 2.7734 2.8906 5.9766 3.8477 c4.2578 1.2891 9.2969 2.9297 9.2969 8.5547 c0 5.9961 -5.0195 8.5156 -10.547 8.5156 z M104.2778125 11.777000000000001 l0 5.1563 l-6.6992 0 l0 23.066 l-5.8008 0 l0 -23.066 l-6.7383 0 l0 -5.1563 l19.238 0 z M144.68740625 40 l-5.8398 0 l-1.8555 -21.27 l-7.1484 21.27 l-3.7891 0 l-7.1484 -21.27 l-1.875 21.27 l-5.8594 0 l2.3633 -28.223 l8.3594 0 l6.0156 17.715 l6.0938 -17.715 l8.3594 0 z M166.95278125 40.39063 c-8.3008 0 -14.434 -5.6445 -14.434 -14.512 s6.1328 -14.492 14.434 -14.492 c6.2891 0 11.328 3.2227 13.34 8.5742 l-5.4688 1.9922 c-1.25 -3.2813 -4.2383 -5.1758 -7.8711 -5.1758 c-4.8633 0 -8.5938 3.3984 -8.5938 9.1016 s3.7305 9.1211 8.5938 9.1211 c3.6328 0 6.6211 -1.9141 7.8711 -5.1953 l5.4688 1.9922 c-2.0117 5.3516 -7.0508 8.5938 -13.34 8.5938 z"></path></g><g id="SvgjsG2615" featureKey="sloganFeature-0" transform="matrix(1.0083789883859702,0,0,1.0083789883859702,19.294135140879135,158.45391556387716)" fill="#289284"><path d="M0.7 18.08 c0 -0.94 1.22 -1.76 1.22 -1.86 c0.58 0 1.3 0.28 1.3 1.02 c0 0.7 -0.76 0.84 -0.76 1.54 c0 0.72 0.66 0.78 1.14 0.78 c2.78 0 4.02 -1.7 4.92 -4 c0.14 -0.36 0.74 -0.78 0.74 -1.24 c0 -0.3 -0.26 -0.32 -0.54 -0.32 c0.02 0 -1.12 0.1 -1.64 0.1 c-0.14 0 -0.14 -0.14 -0.14 -0.24 c0 -0.3 0.32 -1.08 0.74 -1.08 l2.24 0 c0.06 0 0.92 -0.86 0.92 -1.28 c0 -0.18 0.16 -0.5 0.28 -0.58 l1.12 -1.86 c0.2 -0.32 1.76 -0.94 2.22 -0.94 l0.3 0 c-0.3 0.7 -0.88 1.42 -1.22 1.96 c-0.46 0.74 -0.74 1.58 -1.2 2.34 c0 0.28 0.06 0.36 0.26 0.46 c0.7 0 1.1 -0.1 1.64 -0.1 c0.14 0 0.52 0 0.52 0.24 c0 0.54 -0.42 0.98 -0.94 0.98 c-0.46 0 -0.82 -0.12 -1.48 -0.12 c-0.38 0 -0.8 0.06 -1.02 0.38 c-1.98 4 -3 6.06 -8.3 6.06 c-1.06 0 -2.32 -1.36 -2.32 -2.24 z M4.8 9.34 c0.14 -0.36 0.44 -1.22 0.66 -1.68 c0.18 -0.36 0.12 -0.18 0.46 -0.46 c1.3 -1.12 2.08 -1.66 3.96 -1.66 c1.06 0 2.16 0.16 3.2 0.46 c0.68 0.56 2.12 0.82 2.96 0.82 c0.72 0 0.72 -0.56 1.3 -0.56 c0.12 0 0.2 0.02 0.2 0.2 c0 0.78 -1.5 1.02 -2 1.02 c-1.44 0 -2.78 -0.46 -4.22 -0.46 c-2 0 -3.96 0.46 -4.76 2.52 c-0.2 0.42 -0.22 1.38 -0.6 1.38 c-0.56 0 -1.12 -1.12 -1.16 -1.58 z M30.5345 20.1 c-4.1 0 -1.8 -6.62 -3.62 -6.62 c-1.34 0 -3.16 7 -6.14 7 c-1.42 0 -5.16 -0.5 -5.16 -2.52 c0 -0.94 0.5 -1.58 1.38 -1.58 c0.42 0 0.86 0.42 0.86 0.88 c0 0.56 -0.66 0.78 -0.66 1.3 c0 0.8 0.7 0.88 1.44 0.88 l0.6 0 c3.08 0 4.6 -4.44 5.86 -6.68 c0.98 -1.64 3.44 -5.94 3.44 -6.2 c0 -0.28 -0.46 -0.34 -0.92 -0.34 c-0.26 0 -0.54 0.02 -0.7 0.02 c-2.8 0 -5.44 2.42 -5.44 5.24 c0 0.4 0.34 1.54 1.2 1.54 c0.24 0 1.04 -0.18 1.18 -0.18 c0.12 0 0.22 0.14 0.22 0.28 c0 0.1 0 0.1 -0.1 0.2 c-0.64 0.56 -1.12 0.92 -2 0.92 c-1.28 0 -2.44 -1.48 -2.44 -2.52 c0 -1.72 1.84 -3.78 2.86 -4.46 c1.92 -1.26 3.78 -1.6 5.76 -1.6 c1.1 0 1.46 0.08 2.16 0.3 c2 0.64 3.4 1.02 3.9 3.36 c0 2.32 -2.32 4.08 -4.56 4.08 c-0.28 0 -0.82 0.06 -0.82 0.18 c0 0.06 0.02 0.42 0.02 0.46 c1.04 0 0.48 4.94 2.56 4.94 c0.62 0 0.86 -0.54 1.42 -0.64 c0 0 0.26 0.08 0.26 0.26 c0 0.06 -0.12 0.42 -0.74 0.84 c-0.64 0.56 -1.02 0.66 -1.82 0.66 z M27.1545 12.66 c0.14 0.42 0.6 0.46 1.02 0.46 c2.28 0 4.18 -1.34 4.18 -3.74 c0 -0.46 -0.72 -2.32 -1.68 -2.48 c-0.08 0.04 -0.4 0.04 -0.46 0.18 c-0.1 0.14 -0.42 0.8 -0.46 0.92 c-0.14 0 -1.78 3.26 -1.96 3.54 c-0.08 0.18 -0.56 0.92 -0.64 1.12 z M36.909 15.34 c-0.04 0 -0.1 -0.04 -0.1 -0.1 c0 -0.22 0.2 -0.5 0.28 -0.74 c0.24 -0.74 0.52 -1.46 1.02 -2.14 c0.26 -0.34 0.84 -0.7 1.12 -0.92 c0.48 -0.76 1.86 -0.78 1.86 -1.32 c0 -0.46 -0.28 -0.88 -0.28 -1.38 c0 -2.34 2.22 -3.24 4.18 -3.24 c0.28 0 0.54 0.02 0.76 0.06 c0.86 0.36 1.66 0.4 2.46 0.4 c0.7 0 0.6 -0.3 0.88 -0.3 c0.24 0 0.28 0.04 0.28 0.28 c0 1.28 -1.78 1.96 -3.12 1.96 c-0.88 0 -1.7 -0.28 -2.6 -0.28 c-0.98 0 -2 0.28 -2 1.48 c0 0.38 0.04 0.8 0.38 1.02 l0.08 -0.1 s0.56 -0.08 0.76 -0.08 c0.82 0 1.68 0.2 1.68 0.8 c-0.16 0.68 -0.92 0.7 -1.32 0.7 c-0.32 -0.06 -1.4 -0.56 -1.76 -0.56 c-0.66 0 -1.32 0.46 -1.58 1.02 c0.02 0.02 0.02 0.04 0.02 0.06 c0 0.26 -0.48 0.56 -0.58 0.78 c-0.28 0.7 -0.38 1.34 -0.38 2.08 c0 1.96 1.12 3.3 2.98 3.96 l0.88 0 c0.52 -0.02 1.78 -0.02 2.2 -0.46 l1.2 -1.22 c0.14 -0.42 0.66 -0.88 0.66 -1.48 c0 -1.26 -0.98 -2.06 -2.2 -2.06 c-0.6 0 -1.02 0.56 -1.08 1.12 c0 0.32 0.34 1 0.48 1.22 c-0.14 0.28 -0.48 0.28 -0.74 0.28 c-0.94 0 -1.22 -1.04 -1.22 -1.76 c0 -1.1 1.14 -1.62 2.26 -1.62 c1.46 0 3.08 0.84 3.08 2.42 c0 2.52 -2.78 5.06 -5.72 5.06 c-0.58 0 -1.5 -0.28 -2.14 -0.48 c-1.88 -0.72 -2.68 -2.58 -2.68 -4.46 z M51.5435 15.34 c-0.04 0 -0.1 -0.04 -0.1 -0.1 c0 -0.22 0.2 -0.5 0.28 -0.74 c0.24 -0.74 0.52 -1.46 1.02 -2.14 c0.26 -0.34 0.84 -0.7 1.12 -0.92 c0.48 -0.76 1.86 -0.78 1.86 -1.32 c0 -0.46 -0.28 -0.88 -0.28 -1.38 c0 -2.34 2.22 -3.24 4.18 -3.24 c0.28 0 0.54 0.02 0.76 0.06 c0.86 0.36 1.66 0.4 2.46 0.4 c0.7 0 0.6 -0.3 0.88 -0.3 c0.24 0 0.28 0.04 0.28 0.28 c0 1.28 -1.78 1.96 -3.12 1.96 c-0.88 0 -1.7 -0.28 -2.6 -0.28 c-0.98 0 -2 0.28 -2 1.48 c0 0.38 0.04 0.8 0.38 1.02 l0.08 -0.1 s0.56 -0.08 0.76 -0.08 c0.82 0 1.68 0.2 1.68 0.8 c-0.16 0.68 -0.92 0.7 -1.32 0.7 c-0.32 -0.06 -1.4 -0.56 -1.76 -0.56 c-0.66 0 -1.32 0.46 -1.58 1.02 c0.02 0.02 0.02 0.04 0.02 0.06 c0 0.26 -0.48 0.56 -0.58 0.78 c-0.28 0.7 -0.38 1.34 -0.38 2.08 c0 1.96 1.12 3.3 2.98 3.96 l0.88 0 c0.52 -0.02 1.78 -0.02 2.2 -0.46 l1.2 -1.22 c0.14 -0.42 0.66 -0.88 0.66 -1.48 c0 -1.26 -0.98 -2.06 -2.2 -2.06 c-0.6 0 -1.02 0.56 -1.08 1.12 c0 0.32 0.34 1 0.48 1.22 c-0.14 0.28 -0.48 0.28 -0.74 0.28 c-0.94 0 -1.22 -1.04 -1.22 -1.76 c0 -1.1 1.14 -1.62 2.26 -1.62 c1.46 0 3.08 0.84 3.08 2.42 c0 2.52 -2.78 5.06 -5.72 5.06 c-0.58 0 -1.5 -0.28 -2.14 -0.48 c-1.88 -0.72 -2.68 -2.58 -2.68 -4.46 z M76.13250000000001 20.08 c-1.42 0 -2.48 -0.48 -3.54 -1.5 c-0.26 -0.26 -0.56 -1 -0.56 -1.14 c0 -0.24 0.1 -0.44 0.32 -0.44 c1.26 0 2.4 0.84 3.54 0.84 c1.56 0 3.96 -0.62 5.82 -2.42 c1.64 -1.6 2.98 -3.44 4.08 -5.4 c0.62 -1.34 1.46 -2.18 1.68 -3.7 c0.06 -0.4 0.56 -0.56 0.88 -0.56 c0.44 0 0.62 0 0.62 0.46 c0 2.64 -1.66 5.3 -1.66 7.96 c0 0.1 0 0.2 0.02 0.3 l0.14 0 c0.08 -0.56 0.54 -0.98 0.84 -1.38 c1.5 -2.06 4.64 -7.36 7.46 -7.36 c0.52 0 0.64 0.2 0.64 0.52 c0 0.74 -0.88 1.54 -1.3 2.18 c-0.6 0.9 -1.22 1.78 -1.78 2.7 c-0.88 1.5 -2.42 4.32 -2.42 6.14 c0 0.88 0.52 1.4 1.4 1.4 c0.42 0 1.06 -0.1 1.48 -0.28 c0.1 0 0.16 -0.2 0.34 -0.2 c0.14 0 0.14 0.1 0.14 0.24 c0 0.68 -1.74 1.72 -3.24 1.72 c-1.34 0 -2.24 -1.16 -2.24 -2.26 c0 -2.26 2.16 -5.64 4.74 -9.54 c0.26 -0.2 0.82 -0.9 0.82 -1.22 c-0.86 0.16 -3.34 3.54 -4.08 4.28 c-0.34 0.28 -2.84 4.04 -2.8 4.1 c-0.46 0.74 -0.82 1.48 -1.02 1.76 c-0.5 0.72 -0.98 2.8 -1.98 2.8 c-0.06 0 -0.14 -0.02 -0.16 -0.1 c0.16 -0.98 1.8 -8 1.86 -8.56 c0.08 -0.28 0.2 -0.5 0.2 -0.8 c0 -0.06 -0.02 -0.12 -0.1 -0.14 c-0.14 0.1 -0.9 1.68 -1.12 2.06 c-2.44 3.08 -4.94 7.54 -9.02 7.54 z M99.00700000000002 17.22 c0.16 -3.1 3.24 -6.6 6.04 -8.28 c0.6 -0.36 1.86 -0.92 2.22 -1.4 c0 -0.1 -0.12 -0.1 -0.24 -0.1 c-0.5 0 -0.98 0.1 -1.56 0.1 c-1.04 0 -2.12 -0.12 -3.16 -0.12 c-0.68 0 -1.34 0.16 -2 0.22 c-0.78 0.08 -1.18 1.02 -1.76 1.02 c-0.1 0 -0.2 0 -0.2 -0.14 c0 -1.58 2.44 -2.84 4.76 -2.84 c0.66 0 1.66 0.06 2.22 0.2 c0.72 0.18 1.64 0.56 2.42 0.56 c1.02 0 2.24 -0.54 2.64 -0.54 c0.24 0 0.36 0.08 0.36 0.2 c0 0.26 -0.44 0.62 -1.04 0.62 c-0.04 0 -0.08 -0.02 -0.12 -0.02 c-0.46 0.38 -0.78 0.7 -1.3 1.02 c-3.62 2.28 -4.38 3.7 -6.22 6.52 c-0.18 0.78 -0.64 1.54 -0.64 2.46 c0 1.56 0.54 2.16 1.32 2.16 c1.96 0 5.26 -3.48 5.84 -4.52 c0.56 -1 3.82 -6.54 4.28 -7.36 c0.52 -0.92 0.34 -1.42 1.96 -1.42 c0.32 0 0.64 0.06 0.64 0.44 c0 0.58 -1.68 2.82 -1.68 3.1 c-0.36 0.64 -0.92 1.86 -1.12 2.06 l-1.96 3.54 c-0.84 1.22 -1.42 3 -1.42 3.38 c0 0.54 0.34 0.62 0.6 0.62 c1.06 0 2.04 -0.96 2.46 -0.96 c0.14 0 0.2 0.16 0.2 0.28 c0 0.54 -1.12 1.02 -1.54 1.24 c-0.8 0.4 -1.58 0.74 -2.46 0.74 c-0.86 0 -1.54 -0.78 -1.54 -1.62 c0 -0.18 0.1 -0.34 0.1 -0.5 c0 -0.2 -0.1 -0.2 -0.3 -0.2 c-1.94 1.54 -2.36 2.52 -4.74 2.52 c-1.54 0 -3.06 -1.5 -3.06 -2.98 z M115.94150000000002 16.56 c0 -0.52 0.92 -0.66 1.24 -0.66 c1.94 0 1.22 3.44 2.96 3.44 c0.28 0.04 0.56 0.06 0.82 0.06 c2.28 0 3.76 -1.44 3.76 -3.2 c0 -0.58 -0.16 -1.18 -0.5 -1.78 c-1.22 -2.18 -4 -3.8 -4 -5.9 c0 -0.94 0.96 -1.78 1.68 -2.28 c0.58 -0.4 1.56 -0.62 2.56 -0.62 c1.82 0 3.76 0.72 3.76 2.52 c0 0.46 -0.32 0.98 -0.84 0.98 c-1.96 0 -0.98 -2.88 -3.4 -2.88 c-0.82 0 -1.8 0.46 -1.8 1.4 c0 0.4 0.04 0.6 0.18 1.12 c0.8 1.32 2.2 2.64 3.34 3.8 c0.68 0.68 0.92 1.76 0.92 2.82 c0 1.14 -0.3 2.24 -0.72 2.66 c-1.34 1.34 -3.12 2.02 -4.9 2.02 c-1.48 0 -2.96 -0.44 -4.22 -1.36 c-0.56 -0.42 -0.84 -1.48 -0.84 -2.14 z M135.096 20.36 l-1.12 -0.1 c-1.32 0 -2.98 -1.56 -2.98 -2.98 c0 -0.78 0.7 -1.96 1.6 -2.04 c0.46 0 1.38 0.42 1.38 1.02 c0 0.98 -1.22 1.06 -1.22 1.94 c0 0.34 0 0.66 0.2 0.96 c0.52 0.3 1.1 0.44 1.68 0.44 c1.4 0 3.14 -0.9 3.8 -2.04 c0.62 -1.22 1.52 -2.12 1.96 -3.44 c0.32 -0.46 0.62 -0.92 0.92 -1.4 c1.38 -2.24 2.84 -4.18 4.76 -6.36 c0 -0.16 -0.2 -0.16 -0.28 -0.16 c-2.86 0 -6.24 2.64 -6.24 5.46 c0 0.04 0.1 0.44 0.1 0.7 c0 0.36 -0.2 0.36 -0.56 0.36 c-0.66 -0.32 -1.04 -1.46 -1.04 -2.32 c0 -0.8 0.8 -1.66 1.42 -2.42 c0.66 -0.82 1.68 -1.16 2.6 -1.58 c0.1 -0.02 1.02 -0.4 1.4 -0.46 c1.16 -0.18 1.98 -0.28 3.52 -0.28 c0.34 0 0.48 0.22 0.48 0.38 c-0.5 0.62 -0.82 1.42 -1.5 1.94 l-0.74 1.5 c-0.28 0.14 -0.78 1.68 -0.94 2.04 c-1.94 4.42 -3.44 7.72 -8.82 8.84 l-0.38 0 z M146.81050000000002 15.68 l0 -0.82 c0.06 -0.38 0.24 -1.22 0.28 -1.22 c1.14 -2.38 2.2 -4.76 4.56 -6.32 c0.14 -0.1 0.7 -0.56 0.84 -0.66 c1.02 -0.36 0.88 -0.96 3.64 -0.96 c1.52 0 3.24 0.86 3.24 2.54 c-0.06 0.52 -0.12 1.68 -0.46 2.24 c-1.18 1.24 -1.98 2.42 -4.04 2.42 c-1.32 0 -2.18 -1.24 -2.18 -2.32 c0 -0.8 0.48 -1.5 1.62 -1.5 c0.56 0 1.24 0.42 1.24 1.02 c0 0.22 0 0.7 -0.3 0.7 c-0.36 0 -0.76 -0.68 -1.18 -0.68 c-0.18 0 -0.42 0.18 -0.46 0.36 c0 1.12 0.38 1.76 1.44 1.76 c1.68 0 2.46 -1.62 2.46 -3.06 c0 -1.74 -2.14 -1.9 -3.34 -2.06 c-0.86 0.1 -1.68 0.64 -2.42 1.12 c-1.9 1.26 -2.78 3.76 -3.26 5.86 c0.06 1.12 0.36 2 0.94 3.08 c0.66 0.58 1.7 1.12 2.74 1.12 c0.82 0 1.96 -0.14 2.74 -0.46 c0.66 -0.28 1.58 -0.82 2.02 -0.82 c0.12 0 0.2 0.06 0.2 0.16 c0 0.64 -3.2 2.38 -3.7 2.6 c-0.78 0.34 -1.84 0.38 -2.66 0.38 c-1.68 0 -3.22 -0.88 -3.78 -2.62 c-0.18 -0.6 -0.02 -1.24 -0.18 -1.86 z"></path></g>
			</g>
		</svg>
	